<svg xmlns="http://www.w3.org/2000/svg" xmlns:xlink="http://www.w3.org/1999/xlink" viewBox="0 0 1200 1200"><defs><style>.cls-1{fill:none;}.cls-2{isolation:isolate;}.cls-3{fill:#eae8ee;}.cls-4{fill:#80421d;}.cls-5{fill:#5f260d;}.cls-6{fill:#f3c8d5;}.cls-7{fill:#d881a3;}.cls-8{fill:#ee62a3;opacity:0.5;}.cls-9{clip-path:url(#clip-path);}.cls-10{fill:#fcd867;}.cls-11,.cls-12{fill:#f28087;}.cls-12{font-size:15.77px;font-family:Lato-Bold, Lato;font-weight:700;}.cls-13{fill:#1a4b96;}.cls-14{fill:#f184b4;}.cls-15{fill:#ecec9d;}.cls-16{fill:#eaea9b;}.cls-17{fill:#292664;}.cls-18{fill:#181720;}.cls-19{fill:#df7ba7;}.cls-20{fill:#231e54;}.cls-21{fill:#262432;}.cls-22{fill:#f184b2;}.cls-23{fill:#b67232;}.cls-24{fill:#e4b725;}.cls-25{mix-blend-mode:soft-light;fill:url(#linear-gradient);}</style><clipPath id="clip-path"><path class="cls-1" d="M540.06,498.56a7.29,7.29,0,0,1-1.95,1.77l.52.6a1.9,1.9,0,0,1-2.51,2.79c-7-4.51-18-7.7-28.48-9.89a1.24,1.24,0,0,1,.29-2.45c1.29,0,1.18,0,2.5.07-.87-6.25,2.49-12.75,6.64-17.51a10,10,0,0,1,4.6-3.27,10.6,10.6,0,0,1,6,.44,24.38,24.38,0,0,1,10.1,5.95A18.43,18.43,0,0,1,543,487.43,14.82,14.82,0,0,1,540.06,498.56Z"/></clipPath><linearGradient id="linear-gradient" x1="793.09" y1="910.5" x2="352.06" y2="288.39" gradientUnits="userSpaceOnUse"><stop offset="0" stop-color="#c37db0"/><stop offset="1" stop-color="#56bc80"/></linearGradient></defs><g class="cls-2"><g id="Layer_1" data-name="Layer 1"><path class="cls-3" d="M128.93,789.23c-22.79-57.61-9-132.7,43.4-165.7,22-13.84,49.93-20.54,64.83-41.83,33.06-52.56-30.69-147.57-22.66-216C193.88,93.93,576.73,191.14,659.65,281.43c70.61,41.21,162.48-2.68,241.37,18.75,70.15,19.06,119.47,95.55,107.88,167.31C999.45,526,955.4,580,967.05,638.05c30.9,106,199.69,160.39,60,285.73-73,51.59-168,33.78-252.07,38.6-60.37,3.67-119.25,19.28-178.35,32.12-120.09,32-253.31,27.64-339.43-71.71C209.44,878.59,154.62,854.17,128.93,789.23Z"/><rect class="cls-4" x="397.75" y="902.14" width="193.11" height="8.51"/><path class="cls-5" d="M594.86,914.65H393.75V898.14H594.86Zm-197.11-4H590.86v-8.51H397.75Z"/><path class="cls-6" d="M475.47,498.57l-8.77-3.7-2.89-1.22a11.08,11.08,0,0,1-5.91-14.53l.41-1,2.5-5.92a2.14,2.14,0,0,1,1.51-1.26,2.61,2.61,0,0,1,.48-.05,2.15,2.15,0,0,1,1.42.54C474.84,480.89,478.43,489.53,475.47,498.57Z"/><path class="cls-7" d="M477.15,486.9a23.89,23.89,0,0,0-1-2.78c-2-4.52-5.55-9-10.91-13.81a3.67,3.67,0,0,0-5.82,1.31l-2.91,6.91c-.1.24-.2.48-.28.72a11.16,11.16,0,0,0-.43,1.5c.48.25.95.51,1.4.77a11.4,11.4,0,0,1,.38-1.53q.15-.45.33-.87l2.91-6.91a2.14,2.14,0,0,1,1.51-1.26,2.61,2.61,0,0,1,.48-.05,2.15,2.15,0,0,1,1.42.54c6,5.34,9.76,10.42,11.35,15.46a14.34,14.34,0,0,1,.42,1.52h1.54C477.42,487.91,477.3,487.41,477.15,486.9Zm-8.89,8.63c.12.58.21,1.17.28,1.77l1.58.67c0-.59-.11-1.17-.2-1.74Zm1.66.7-1.66-.7c.12.58.21,1.17.28,1.77l1.58.67C470.08,497.38,470,496.8,469.92,496.23Z"/><path class="cls-7" d="M466.7,494.87l-2.89-1.22a11.08,11.08,0,0,1-5.91-14.53l.41-1C463.24,483.38,466.39,488.9,466.7,494.87Z"/><path class="cls-6" d="M559.88,533.78a45.4,45.4,0,0,1-45.36,45.35H474.57A44.78,44.78,0,0,1,454,574.19,45.67,45.67,0,0,1,438.3,561l-.23-.3h-.38a7.24,7.24,0,0,1-5.75-2.89l-.23-.31h-6.13a12.17,12.17,0,0,1-12.39-11.91V530.31a11.41,11.41,0,0,1,.69-3.93l0,0a10.3,10.3,0,0,1,.46-1.08,12.48,12.48,0,0,1,11.22-6.86h6.31l.19-.49a45.35,45.35,0,0,1,42.49-29.48h39.95a45.34,45.34,0,0,1,45.36,45.36Z"/><rect class="cls-8" x="438.1" y="524.74" width="13.68" height="4.69" rx="2.34"/><path class="cls-7" d="M444.39,519.61a3.77,3.77,0,0,0-4-1.85c.2-2.52,1.57-4.87,2.34-4.87C443.67,512.89,444.38,516.3,444.39,519.61Z"/><path class="cls-7" d="M418.18,534.52c0,4.32-2.18,7.89-5,8.39v-12.6a11.41,11.41,0,0,1,.69-3.93l0,0C416.36,527.25,418.18,530.57,418.18,534.52Z"/><path class="cls-6" d="M527.5,587.33a4.17,4.17,0,0,1-.69,2.77,2.82,2.82,0,0,1-2,1.25l-4.09.38a2.8,2.8,0,0,1-2.22-.86,4.14,4.14,0,0,1-1.18-2.6.58.58,0,0,0,0-.14l-3.67-12.74,14.9-.25-1,12.05A.33.33,0,0,0,527.5,587.33Z"/><path class="cls-6" d="M468.65,498.71h-8.36a.76.76,0,0,0-.76-.76h-.45c-8.66-.15-14.23-4.47-14.23-11.09V479.6a2.33,2.33,0,0,1,3.07-2.2C461.58,482.1,468.17,488.87,468.65,498.71Z"/><path class="cls-7" d="M470.12,498l-1.58-.67c0,.47.09.95.11,1.44a.77.77,0,0,0,.76.73h0a.77.77,0,0,0,.72-.8C470.16,498.44,470.14,498.2,470.12,498Zm106.39,36.16a1.27,1.27,0,0,0-1.52,1c-.78,3.43-2.54,5.31-4.72,5.06l-.41-.08a19.16,19.16,0,0,0,.54-5.15c-.08-5.92-1.73-9.74-4.2-9.74-1.21,0-3.26.93-3.35,7.16-.06,4.18,1.63,7.25,3.83,8.92a4,4,0,0,1-1.58,1.6,5.1,5.1,0,0,1-4.51-.4,46.88,46.88,0,0,0-46.07-55.55H474.57a47.74,47.74,0,0,0-8.14.7,23.14,23.14,0,0,0-2.75-3.16,30.57,30.57,0,0,0-6.11-4.45c-.43-.25-.89-.5-1.35-.74a58.28,58.28,0,0,0-7.81-3.29,3.84,3.84,0,0,0-5.08,3.64v7.26a11.43,11.43,0,0,0,4,8.77,46.8,46.8,0,0,0-16.48,21.24h-5.26A14,14,0,0,0,413,524.58a13,13,0,0,0-.55,1.28,13.15,13.15,0,0,0-.78,4.45v15.28A13.7,13.7,0,0,0,425.58,559H431a8.77,8.77,0,0,0,6.34,3.19,46.93,46.93,0,0,0,22.32,16l.68,9a5.68,5.68,0,0,0,1,3.72,4.24,4.24,0,0,0,3.12,1.89l4.09.38h.37a4.36,4.36,0,0,0,3-1.29,5.76,5.76,0,0,0,1.63-3.51l1.64-7.8h38.37l2.25,7.83a5.76,5.76,0,0,0,1.63,3.48,4.34,4.34,0,0,0,3,1.29h.38l4.09-.38a4.24,4.24,0,0,0,3.12-1.89,5.67,5.67,0,0,0,1-3.72l.77-9.15a47.07,47.07,0,0,0,30.34-33.43l-.06.33a8.69,8.69,0,0,0,3.4.75,6,6,0,0,0,2.8-.65,6.48,6.48,0,0,0,2.66-2.68,5.64,5.64,0,0,0,1.05.23c2.77.33,6.19-1.33,7.49-7A1.25,1.25,0,0,0,576.51,534.13Zm-46.59,42.31.1-1.25a.76.76,0,0,0-.69-.82.74.74,0,0,0-.82.69l-.16,1.92-.14,1.63-.71,8.58a.33.33,0,0,0,0,.14,4.17,4.17,0,0,1-.69,2.77,2.82,2.82,0,0,1-2,1.25l-4.09.38a2.8,2.8,0,0,1-2.22-.86,4.14,4.14,0,0,1-1.18-2.6.58.58,0,0,0,0-.14l-2.15-7.48-.44-1.52-1.13-3.94a.76.76,0,1,0-1.46.42l1,3.52H475.5l.75-3.57a.75.75,0,0,0-.58-.9.76.76,0,0,0-.91.58l-.82,3.89-.32,1.51L472,588.18a.28.28,0,0,0,0,.09,4.2,4.2,0,0,1-1.19,2.6,2.77,2.77,0,0,1-2.21.86l-4.09-.38a2.82,2.82,0,0,1-2-1.25,4.17,4.17,0,0,1-.69-2.77.28.28,0,0,0,0-.13l-.64-8.49-.12-1.62-.27-3.54a.76.76,0,0,0-1.52.11l.22,2.91a46.72,46.72,0,0,1-5.51-2.38A45.67,45.67,0,0,1,438.3,561l-.23-.3h-.38a7.24,7.24,0,0,1-5.75-2.89l-.23-.31h-6.13a12.17,12.17,0,0,1-12.39-11.91V530.31a11.41,11.41,0,0,1,.69-3.93c.14-.38.3-.76.48-1.13a12.48,12.48,0,0,1,11.22-6.86h6.31l.19-.49a45.26,45.26,0,0,1,16.36-21.2l.15-.1a19.56,19.56,0,0,0,10.94,2.87.76.76,0,0,0,0-1.52,18.64,18.64,0,0,1-9.57-2.28,10.75,10.75,0,0,1-1.35-.93,9.78,9.78,0,0,1-3.76-7.88V479.6a2.33,2.33,0,0,1,3.07-2.2,54.43,54.43,0,0,1,7.87,3.35c.48.25.95.51,1.4.77a25.74,25.74,0,0,1,7.6,6.4c.34.44.66.89,1,1.36a18.05,18.05,0,0,1,2.51,6.25c.12.58.21,1.17.28,1.77s.09.95.11,1.44a.77.77,0,0,0,.76.73h0a.77.77,0,0,0,.72-.8c0-.23,0-.47-.05-.7,0-.59-.11-1.17-.2-1.74a19.88,19.88,0,0,0-2.59-7.24,45.91,45.91,0,0,1,7.24-.57h39.95a45.36,45.36,0,0,1,15.4,88Zm37.66-37.76a8.86,8.86,0,0,1-2.2-6.32c0-2.89.57-4.18.86-4.58.53.51,1.57,2.66,1.63,7.16A18.38,18.38,0,0,1,567.58,538.68ZM470.12,498l-1.58-.67c0,.47.09.95.11,1.44a.77.77,0,0,0,.76.73h0a.77.77,0,0,0,.72-.8C470.16,498.44,470.14,498.2,470.12,498Z"/><path class="cls-7" d="M459.08,498c-8.66-.15-14.23-4.47-14.23-11.09v-1.08C451.43,488.7,456.48,492.57,459.08,498Z"/><path class="cls-6" d="M474.75,575.31,472,588.18a.28.28,0,0,0,0,.09,4.2,4.2,0,0,1-1.19,2.6,2.77,2.77,0,0,1-2.21.86l-4.09-.38a2.82,2.82,0,0,1-2-1.25,4.17,4.17,0,0,1-.69-2.77.28.28,0,0,0,0-.13l-1-13.51Z"/><path class="cls-7" d="M538.63,500.93c-5.87-7.26-19-9.24-30.7-9.54a1.23,1.23,0,0,0-.29,2.44c10.46,2.19,21.49,5.38,28.48,9.89A1.9,1.9,0,0,0,538.63,500.93Z"/><g class="cls-9"><circle class="cls-10" cx="527.71" cy="485.78" r="14.1"/><path class="cls-11" d="M527.69,497.75a12,12,0,0,1-11.42-8.44h0a12,12,0,1,1,11.42,8.44Zm-10-8.89a10.45,10.45,0,1,0,6.9-13.06,10.39,10.39,0,0,0-6.9,13.06Z"/><text class="cls-12" transform="matrix(0.96, -0.3, 0.3, 0.96, 524.74, 492.64)">$</text></g><path class="cls-13" d="M738.27,232.25l-26.17.34A31.39,31.39,0,0,0,681.23,264l.07,26.23a30.57,30.57,0,0,0,31,30.59l26.18-.35a31.38,31.38,0,0,0,30.86-31.41l-.06-26.23A30.56,30.56,0,0,0,738.27,232.25Z"/><path class="cls-14" d="M748.78,378.7c-15.5.36-31,1.11-46.47,1.87,1.84-24.25,3.3-48.53,5.09-72.79q18.24,0,36.48-.12C745.26,331.37,746.94,355,748.78,378.7Z"/><path class="cls-14" d="M694.16,331.76l8-.11c18.1-.24,50.18-15.37,50.14-33.51l-.05-17a32.38,32.38,0,0,0-32.86-32.41l-8,.11a33.24,33.24,0,0,0-32.7,33.28l0,17C678.78,317.26,676.06,332,694.16,331.76Z"/><path class="cls-13" d="M715.93,273.31l-28.12,7.27a17,17,0,0,1-20.76-12.33h0a17.39,17.39,0,0,1,12.53-20.94l28.12-7.26a16.94,16.94,0,0,1,20.76,12.33h0A17.38,17.38,0,0,1,715.93,273.31Z"/><path class="cls-13" d="M740.77,278.77l-8.46-2.49A17,17,0,0,1,720.89,255h0a17.32,17.32,0,0,1,21.38-11.68l8.47,2.48a17,17,0,0,1,11.42,21.31h0A17.33,17.33,0,0,1,740.77,278.77Z"/><path class="cls-14" d="M741.42,293.36c0,9.38,7.17,15.21,15.76,14.48a17.39,17.39,0,0,0,16.07-17.11c0-9.37-7.17-15.21-15.77-14.49A17.36,17.36,0,0,0,741.42,293.36Z"/><path class="cls-14" d="M560.76,459.32,560,471.24l-.78,11.91,115.45-10,24-40.34c7.52-13.36,12.6-24.83,3-34.94h0A23.51,23.51,0,0,0,666.72,399l-18.17,46.6Z"/><path class="cls-14" d="M524.42,469.3h0a12.44,12.44,0,0,0,11.06,13.22l18.26,2a12.77,12.77,0,0,0,14.08-11.85l.13-2a12.44,12.44,0,0,0-12.44-13.29H537.12A12.76,12.76,0,0,0,524.42,469.3Z"/><path class="cls-15" d="M664.94,362.84l-14.67,56.24,52.18,13.1c2.81.7,5.78-1.43,6.65-4.76l11.19-50c1.33-12.41-1.91-23.11-13.25-26l-16.19-4.06A21.47,21.47,0,0,0,664.94,362.84Z"/><path class="cls-16" d="M797.78,513.08l-130.87,1.67L669,361.18A15.69,15.69,0,0,1,684.48,347l98.17.73c9.76-.1,22.05,12.76,22.51,25.09Z"/><path class="cls-14" d="M669.78,898.26l3.92,55h23.88l-2-51.62a3.09,3.09,0,0,0-2.53-2.89l-19.9-3.52A2.86,2.86,0,0,0,669.78,898.26Z"/><path class="cls-14" d="M617,967.76h81l-.45-14.5H673.7S616.75,958.19,617,967.76Z"/><path class="cls-17" d="M697.33,945.58l.68,22.18H615.88c-.61-19.56,57.17-22.18,57.17-22.18Z"/><path class="cls-18" d="M654.06,921.44l27,.27,27,.26L708,717.06l42.8-211.93H672.26c-3,.05-5.45,1.22-5.87,4.15L644.72,704.17Z"/><path class="cls-19" d="M801,909.33l-14.63,2a4.48,4.48,0,0,0-3.85,5.24l5.24,35.21,23.91,0-4.35-37.44A5.79,5.79,0,0,0,801,909.33Z"/><path class="cls-19" d="M732.2,966.12l81.08.14-1.57-14.48-23.91,0S731.16,956.56,732.2,966.12Z"/><path class="cls-20" d="M810.86,944.11l2.4,22.15L731,966.12c-2.12-19.54,55.53-22.06,55.53-22.06Z"/><path class="cls-21" d="M765.47,923.29,792.34,922l26.87-1.31L795.27,716.15l7.19-205c-.07-1.83-1.59-5.91-3.43-6H718.27l15.09,212.64Z"/><path class="cls-22" d="M867.62,415.82l-34.27-32c-11.29-8.7-27.32-6.15-34.63,5.51h0c-7.38,11.79-2.62,27.7,10.23,34.15l31.6,24.26a21.44,21.44,0,0,0,27.25-.56h0C877,439,876.93,424.52,867.62,415.82Z"/><path class="cls-16" d="M802.93,354.61,850.52,393,817.3,434.5c-1.79,2.23-5.44,2.26-8.17.06l-42.65-34.4c-8.48-6.83-9.39-22.9,1.39-37.79S794.45,347.77,802.93,354.61Z"/><path class="cls-22" d="M844.52,428.35l-65.27,78.72,8.57,8.18,8.56,8.17L866.5,448.6a14.63,14.63,0,0,0-.26-21.64h0A15.64,15.64,0,0,0,844.52,428.35Z"/><path class="cls-22" d="M763.63,539.55h0a12.87,12.87,0,0,0,17.51.21l13.93-12.43a12.43,12.43,0,0,0,.63-18.22l-1.43-1.39a12.92,12.92,0,0,0-18.51.78l-12.5,13.82A12.37,12.37,0,0,0,763.63,539.55Z"/><path class="cls-22" d="M769.84,519.26l10.39-5.61A4.2,4.2,0,0,0,782,508l-.24-.44a4.22,4.22,0,0,0-5.72-1.62l-10.39,5.62a4.19,4.19,0,0,0-1.77,5.66l.24.44A4.2,4.2,0,0,0,769.84,519.26Z"/><rect class="cls-4" x="389.19" y="596.16" width="210.59" height="57.67"/><path class="cls-23" d="M384.41,588.83v357h8.84V660.28H595.36V945.8h8.84V597.67h.19v-8.84Z"/><path class="cls-4" d="M609.2,950.8H590.36V665.28H398.25V950.8H379.41v-367h230v18.84h-.19Zm-13.84-5h8.84V597.67h.19v-8.84h-220v357h8.84V660.28H595.36ZM398.25,646.44H590.36V602.67H398.25Z"/><path class="cls-24" d="M517.46,617.94h0a2.26,2.26,0,0,0-2.26,2.26V621H468.26v-.84a2.27,2.27,0,0,0-4.53,0v9.59a2.27,2.27,0,1,0,4.53,0v-.56H515.2v.56a2.27,2.27,0,0,0,2.26,2.27h0a2.27,2.27,0,0,0,2.27-2.27V620.2A2.27,2.27,0,0,0,517.46,617.94Z"/><path class="cls-25" d="M867.62,415.82l-20.25-18.91,3.15-3.92-47.59-38.38a21.15,21.15,0,0,0-12.3-4.49,16,16,0,0,0-8-2.38l-36.19-.27q-1-13.85-1.84-27.69a31.44,31.44,0,0,0,20.18-14.41,17,17,0,0,0,8.45-14.65,14.43,14.43,0,0,0-3.92-10.3l0-17.59a30.56,30.56,0,0,0-31-30.58l-26.17.34a31.29,31.29,0,0,0-24.7,12.7l-7.82,2a17.39,17.39,0,0,0-12.53,20.94h0a16.88,16.88,0,0,0,11.68,12.18q0,.81,0,1.65l0,17c0,18.14-2.68,32.88,15.42,32.64l8-.11c1.13,0,2.32-.09,3.55-.21q-.54,7.86-1.07,15.72l-15.49-.11a21.48,21.48,0,0,0-24.24,15.79l-14.67,56.24,7.87,2-9.59,24.59-86.64,13.5a12.37,12.37,0,0,0-6.4-1.77H537.12a12.76,12.76,0,0,0-12.7,11.92,10.89,10.89,0,0,0,0,1.14,7.85,7.85,0,0,0-2.73.23,10,10,0,0,0-4.6,3.27c-3.15,3.61-5.84,8.22-6.58,13H477.15a23.89,23.89,0,0,0-1-2.78c-2-4.52-5.55-9-10.91-13.81a3.67,3.67,0,0,0-5.82,1.31l-2.91,6.91c-.1.24-.2.48-.28.72a58.28,58.28,0,0,0-7.81-3.29,3.84,3.84,0,0,0-5.08,3.64v7.26a11.43,11.43,0,0,0,4,8.77,46.8,46.8,0,0,0-16.48,21.24h-5.26A14,14,0,0,0,413,524.58a13,13,0,0,0-.55,1.28,13.15,13.15,0,0,0-.78,4.45v15.28A13.7,13.7,0,0,0,425.58,559H431a8.77,8.77,0,0,0,6.34,3.19,46.93,46.93,0,0,0,22.32,16l.43,5.61H379.41v367h18.84V914.65H590.36V950.8H609.2V602.67h.19V583.83H529.3l.48-5.73a47.07,47.07,0,0,0,30.34-33.43l-.06.33a8.69,8.69,0,0,0,3.4.75,6,6,0,0,0,2.8-.65,6.48,6.48,0,0,0,2.66-2.68,5.64,5.64,0,0,0,1.05.23c2.77.33,6.19-1.33,7.49-7a1.25,1.25,0,0,0-1-1.51,1.27,1.27,0,0,0-1.52,1c-.78,3.43-2.54,5.31-4.72,5.06l-.41-.08a19.16,19.16,0,0,0,.54-5.15c-.08-5.92-1.73-9.74-4.2-9.74-1.21,0-3.26.92-3.35,7.16-.06,4.18,1.63,7.25,3.83,8.92a4,4,0,0,1-1.58,1.6,5.1,5.1,0,0,1-4.51-.4,46.87,46.87,0,0,0-12.92-41.82,48.21,48.21,0,0,0-5.85-5,15.27,15.27,0,0,0,1.2-8.23,16.62,16.62,0,0,0-1.14-4.21l11.86,1.3A12.58,12.58,0,0,0,561.3,483l106.18-9.2L667,507.52a4.53,4.53,0,0,0-.61,1.76L644.72,704.17l9.34,217.27,17.39.17,1.7,24h-.1s-57.78,2.62-57.17,22.18H698l-.45-14.5-.07-1.93-.18-5.75h-.05l-.91-23.72,11.74.11L708,717.06l18.74-92.81,6.64,93.52,32.11,205.52,18-.88,3.22,21.65h-.1s-57.65,2.52-55.53,22.06h1.17l15.87,0,65.19.11h0l-1.57-14.48-.22-1.93-.63-5.74h0l-2.66-22.91,11.05-.54L795.27,716.15l7-199L866.5,448.6a15.6,15.6,0,0,0,1.29-1.42h0C877,439,876.93,424.52,867.62,415.82ZM448.44,496.7l.15-.1h0Zm.17-2-.3-.26c.12.09.22.2.34.29Zm1.35.93-.09-.06.1.06Zm5.34-15.17c.16.08.34.16.49.25l.67.37C456.08,480.91,455.7,480.7,455.3,480.5ZM528.35,577h0l-.14,1.63-.43,5.22h0ZM475.57,486.9Zm-.4,93.75h38.37l.92,3.18h-40ZM474,579.11h0v0l-.32,1.51-.67,3.19h0ZM457.2,481.53l-.17-.1.16.09Zm2,94.93.27.09v0Zm-.91-98.33-.41,1c-.12.29-.23.58-.32.87h0q.15-.45.33-.87l2.91-6.91ZM384.41,945.8h0v-357h0Zm206-43.66h0Zm0-4H398.25V665.28H590.36ZM604.2,597.67h.19v-8.84h0v8.84h-.19V945.8h0Zm-8.84,62.61Zm-65.44-83.84h0l.08,0Zm35.46-44.08c0-2.89.57-4.18.86-4.58.53.51,1.57,2.66,1.63,7.16a18.38,18.38,0,0,1-.29,3.74A8.86,8.86,0,0,1,565.38,532.36Zm234-49.56L802.21,429l6.92,5.58c2.73,2.2,6.38,2.17,8.17-.06l2.29-2.86,13.57,10.42Z"/></g></g></svg>